<svg width="64" height="78" viewBox="0 0 64 78" fill="none" xmlns="http://www.w3.org/2000/svg">
<path d="M38.5 48.6766V40.2557L25.5001 40.2556V48.6766C25.5001 49.1031 25.2134 49.4765 24.8011 49.5864L19.3916 51.0288V65.4707H32H44.6085V51.0288L39.1991 49.5864C38.7868 49.4765 38.5 49.1031 38.5 48.6766Z" fill="#F8C09C"/>
<path d="M25.4999 46.0662C27.4126 47.1731 29.6313 47.8096 32 47.8096C34.3687 47.8096 36.5874 47.1729 38.5 46.0662V40.2557L25.5001 40.2556V46.0662H25.4999Z" fill="#F8AA8B"/>
<path d="M47.6 18.2001C49.036 18.2001 50.2 19.3641 50.2 20.8001V26.0001C50.2 27.4359 49.036 28.6001 47.6 28.6001H16.4C14.964 28.6001 13.7999 27.4361 13.7999 26.0001V20.8001C13.7999 19.3643 14.964 18.2001 16.4 18.2001H47.6Z" fill="#F8AA8B"/>
<path d="M44.9999 13V31.2C44.9999 38.3798 39.1796 44.2 32 44.2C24.8204 44.2 19 38.3796 19 31.2V13H44.9999Z" fill="#F8C09C"/>
<path d="M26.7999 27.1771C26.1497 27.1771 25.6228 26.6503 25.6228 26.0001V24.7001C25.6228 24.0499 26.1497 23.5231 26.7999 23.5231C27.4501 23.5231 27.977 24.0499 27.977 24.7001V26.0001C27.977 26.6503 27.4501 27.1771 26.7999 27.1771Z" fill="#394D5C"/>
<path d="M37.2001 27.1771C36.5499 27.1771 36.023 26.6503 36.023 26.0001V24.7001C36.023 24.0499 36.5499 23.5231 37.2001 23.5231C37.8503 23.5231 38.3772 24.0499 38.3772 24.7001V26.0001C38.3772 26.6503 37.8501 27.1771 37.2001 27.1771Z" fill="#394D5C"/>
<path d="M34.5999 36.2771H29.3999C28.7497 36.2771 28.2229 35.7502 28.2229 35.1C28.2229 34.4498 28.7497 33.923 29.3999 33.923H34.5999C35.2501 33.923 35.7769 34.4498 35.7769 35.1C35.7769 35.7502 35.2501 36.2771 34.5999 36.2771Z" fill="#F8AA8B"/>
<path d="M44.6074 52.1272L47.6964 51.8524L59.3399 54.9574C61.6161 55.5644 63.2 57.626 63.2 59.9819V76.7002C63.2 77.4182 62.6179 78.0002 61.9 78.0002H2.09994C1.38194 78.0002 0.799995 77.4181 0.799995 76.7002V59.9817C0.799995 57.6258 2.38385 55.5643 4.66013 54.9572L16.4389 51.8162L19.3918 53.3829V59.1019L31.9998 63.7L44.6084 59.1019L44.6074 52.1272Z" fill="#118DF0"/>
<path d="M39.8 5.19996H39.4417C38.9216 5.19996 38.5 4.77842 38.5 4.25831V3.90002C38.5 1.74615 36.7539 1.52588e-05 34.6 1.52588e-05H29.4001C27.2462 1.52588e-05 25.5001 1.74615 25.5001 3.90002V4.25831C25.5001 4.77842 25.0785 5.19996 24.5584 5.19996H24.2C21.3281 5.19996 19 7.52804 19 10.3999V18.1999H22.9C23.6181 18.1999 24.2 17.6178 24.2 16.9C24.2 16.182 24.7821 15.6 25.4999 15.6H38.4999C39.2179 15.6 39.7998 16.182 39.7998 16.9C39.7998 17.618 40.3818 18.1999 41.0998 18.1999H44.9998V10.3999C44.9999 7.52804 42.6719 5.19996 39.8 5.19996Z" fill="#887575"/>
<path d="M47.5664 51.8176C47.0356 59.9527 40.2692 66.3867 32 66.3867C23.7306 66.3867 16.964 59.9525 16.4336 51.8173L21.6001 50.437V50.7866C21.6001 56.5304 26.2564 61.1867 32.0001 61.1867C37.7439 61.1867 42.4002 56.5304 42.4002 50.7866V50.437L47.5664 51.8176Z" fill="#D0E2ED"/>
<path d="M54.4583 72.8001H48.5416C48.0215 72.8001 47.6 72.3785 47.6 71.8584V65.9417C47.6 65.4216 48.0215 65.0001 48.5416 65.0001H54.4583C54.9784 65.0001 55.4 65.4216 55.4 65.9417V71.8584C55.4 72.3784 54.9784 72.8001 54.4583 72.8001Z" fill="#83E85A"/>
<path d="M5.99994 71.2905C5.34973 71.2905 4.82288 70.7636 4.82288 70.1134V68.9001C4.82288 68.2499 5.34973 67.723 5.99994 67.723C6.65015 67.723 7.177 68.2499 7.177 68.9001V70.1134C7.177 70.7636 6.65015 71.2905 5.99994 71.2905Z" fill="#FDBE40"/>
<path d="M11.2001 71.2905C10.5498 71.2905 10.023 70.7636 10.023 70.1134V68.9001C10.023 68.2499 10.5498 67.723 11.2001 67.723C11.8503 67.723 12.3771 68.2499 12.3771 68.9001V70.1134C12.3771 70.7636 11.8501 71.2905 11.2001 71.2905Z" fill="#FDBE40"/>
<path d="M16.4 71.2905C15.7498 71.2905 15.2229 70.7636 15.2229 70.1134V68.9001C15.2229 68.2499 15.7498 67.723 16.4 67.723C17.0502 67.723 17.5771 68.2499 17.5771 68.9001V70.1134C17.5771 70.7636 17.05 71.2905 16.4 71.2905Z" fill="#FDBE40"/>
<path d="M39.8 5.19995H39.4415C38.9727 5.19995 38.5849 4.85688 38.5129 4.40834V9.09995C38.5129 9.75016 39.0398 10.277 39.69 10.277C40.3402 10.277 40.867 9.75016 40.867 9.09995V5.31013C40.5227 5.23825 40.1658 5.19995 39.8 5.19995Z" fill="#806666"/>
<path d="M25.4968 9.09996V4.32281C25.4635 4.81263 25.0567 5.19996 24.5585 5.19996H24.2C23.8376 5.19996 23.484 5.23716 23.1427 5.30778V9.09996C23.1427 9.75017 23.6695 10.277 24.3197 10.277C24.97 10.277 25.4968 9.75017 25.4968 9.09996Z" fill="#806666"/>
<path d="M59.3399 54.9574L55.9708 54.0589C58.1171 54.7428 59.5903 56.7405 59.5903 59.0124V76.7001C59.5903 77.4181 59.0084 78 58.2904 78H61.9001C62.6181 78 63.2 77.4179 63.2 76.7001V59.9817C63.2 57.6259 61.6161 55.5643 59.3399 54.9574Z" fill="#1179F0"/>
<path d="M54.4583 65.0001H50.8487C51.3688 65.0001 51.7903 65.4216 51.7903 65.9417V71.8584C51.7903 72.3785 51.3688 72.8001 50.8487 72.8001H54.4583C54.9784 72.8001 55.4 72.3785 55.4 71.8584V65.9417C55.4 65.4216 54.9784 65.0001 54.4583 65.0001Z" fill="#4AE048"/>
</svg>
